<?xml version="1.0" encoding="UTF-8" standalone="no"?>
<!-- Created with Inkscape (http://www.inkscape.org/) -->

<svg
   xmlns:dc="http://purl.org/dc/elements/1.1/"
   xmlns:cc="http://creativecommons.org/ns#"
   xmlns:rdf="http://www.w3.org/1999/02/22-rdf-syntax-ns#"
   xmlns:svg="http://www.w3.org/2000/svg"
   xmlns="http://www.w3.org/2000/svg"
   xmlns:sodipodi="http://sodipodi.sourceforge.net/DTD/sodipodi-0.dtd"
   xmlns:inkscape="http://www.inkscape.org/namespaces/inkscape"
   width="9.0311108mm"
   height="9.0311108mm"
   viewBox="0 0 31.999999 31.999998"
   id="svg2"
   version="1.1"
   inkscape:version="0.91 r13725"
   sodipodi:docname="landing-32x32.svg">
  <defs
     id="defs4" />
  <sodipodi:namedview
     id="base"
     pagecolor="#ffffff"
     bordercolor="#666666"
     borderopacity="1.0"
     inkscape:pageopacity="0.0"
     inkscape:pageshadow="2"
     inkscape:zoom="16.500001"
     inkscape:cx="15.999999"
     inkscape:cy="15.999999"
     inkscape:document-units="px"
     inkscape:current-layer="layer1"
     showgrid="false"
     fit-margin-top="0"
     fit-margin-left="0"
     fit-margin-right="0"
     fit-margin-bottom="0"
     inkscape:window-width="1280"
     inkscape:window-height="730"
     inkscape:window-x="89"
     inkscape:window-y="0"
     inkscape:window-maximized="0" />
  <metadata
     id="metadata7">
    <rdf:RDF>
      <cc:Work
         rdf:about="">
        <dc:format>image/svg+xml</dc:format>
        <dc:type
           rdf:resource="http://purl.org/dc/dcmitype/StillImage" />
        <dc:title></dc:title>
      </cc:Work>
    </rdf:RDF>
  </metadata>
  <g
     inkscape:label="Layer 1"
     inkscape:groupmode="layer"
     id="layer1"
     transform="translate(-72.047241,-794.18116)">
    <g
       id="g4320"
       transform="matrix(0.05333333,0,0,0.05333333,68.204722,782.11814)">
      <path
         inkscape:connector-curvature="0"
         id="path3336"
         d="m 672.04724,526.1811 a 300,300 0 0 1 -300,300 300,300 0 0 1 -299.999993,-300 300,300 0 0 1 299.999993,-300 300,300 0 0 1 300,300 z"
         style="opacity:1;fill:#985e6d;fill-opacity:1;stroke:#ffffff;stroke-width:0;stroke-miterlimit:4;stroke-dasharray:none;stroke-opacity:1" />
      <path
         id="path4139"
         d="m 647.04724,526.18109 a 275,275 0 0 1 -275,275 275,275 0 0 1 -274.999999,-275 275,275 0 0 1 274.999999,-275 275,275 0 0 1 275,275 z"
         style="opacity:1;fill:#f0efef;fill-opacity:1;stroke:#ffffff;stroke-width:0;stroke-miterlimit:4;stroke-dasharray:none;stroke-opacity:1"
         inkscape:connector-curvature="0" />
      <g
         style="fill:#985e6c;fill-opacity:1"
         transform="translate(191.43299,345.5675)"
         id="g4297">
        <g
           style="fill:#985e6c;fill-opacity:1"
           id="g4251">
          <g
             style="fill:#985e6c;fill-opacity:1"
             id="g4253">
            <g
               style="fill:#985e6c;fill-opacity:1"
               id="g4255">
              <path
                 style="fill:#985e6c;fill-opacity:1"
                 inkscape:connector-curvature="0"
                 d="m 12.348,132.041 c -0.012,-0.001 -0.023,-0.003 -0.036,-0.005 -4.478,-0.737 -8.776,2.086 -9.873,6.494 -1.102,4.419 1.384,8.941 5.706,10.379 l 121.85,40.542 -40.533,16.141 c -2.944,1.173 -4.746,4.165 -4.404,7.314 0.34,3.151 2.741,5.688 5.87,6.203 l 26.57,4.373 c 0.763,0.125 1.541,0.125 2.304,-0.002 l 100.975,-16.795 97.254,15.842 c 37.176,5.542 42.321,-7.729 43.012,-11.931 0.537,-3.256 0.166,-8.438 -4.641,-14.626 -4.875,-6.279 -13.269,-12.348 -25.652,-18.553 -4.135,-2.072 -6.104,-3.632 -8.188,-5.284 -7.334,-5.807 -12.791,-9.106 -47.809,-14.871 L 83.206,125.736 50.492,57.958 C 49.258,55.402 46.858,53.607 44.056,53.146 L 31.539,51.085 c -2.577,-0.424 -5.208,0.329 -7.168,2.053 -1.962,1.724 -3.048,4.236 -2.958,6.845 l 2.525,74.013 -11.59,-1.955 z"
                 id="path4257" />
              <path
                 style="fill:#985e6c;fill-opacity:1"
                 inkscape:connector-curvature="0"
                 d="m 342.707,277.051 -326.103,0 C 7.434,277.051 0,284.484 0,293.654 c 0,9.17 7.434,16.604 16.604,16.604 l 326.103,0 c 9.17,0 16.605,-7.436 16.605,-16.604 0,-9.168 -7.435,-16.603 -16.605,-16.603 z"
                 id="path4259" />
            </g>
          </g>
        </g>
        <g
           style="fill:#985e6c;fill-opacity:1"
           id="g4261" />
        <g
           style="fill:#985e6c;fill-opacity:1"
           id="g4263" />
        <g
           style="fill:#985e6c;fill-opacity:1"
           id="g4265" />
        <g
           style="fill:#985e6c;fill-opacity:1"
           id="g4267" />
        <g
           style="fill:#985e6c;fill-opacity:1"
           id="g4269" />
        <g
           style="fill:#985e6c;fill-opacity:1"
           id="g4271" />
        <g
           style="fill:#985e6c;fill-opacity:1"
           id="g4273" />
        <g
           style="fill:#985e6c;fill-opacity:1"
           id="g4275" />
        <g
           style="fill:#985e6c;fill-opacity:1"
           id="g4277" />
        <g
           style="fill:#985e6c;fill-opacity:1"
           id="g4279" />
        <g
           style="fill:#985e6c;fill-opacity:1"
           id="g4281" />
        <g
           style="fill:#985e6c;fill-opacity:1"
           id="g4283" />
        <g
           style="fill:#985e6c;fill-opacity:1"
           id="g4285" />
        <g
           style="fill:#985e6c;fill-opacity:1"
           id="g4287" />
        <g
           style="fill:#985e6c;fill-opacity:1"
           id="g4289" />
      </g>
    </g>
  </g>
</svg>
